<?xml version="1.0" encoding="UTF-8"?>
<svg version="1.1" xmlns="http://www.w3.org/2000/svg" width="128" height="128">
<path d="M0 0 C42.24 0 84.48 0 128 0 C128 42.24 128 84.48 128 128 C85.76 128 43.52 128 0 128 C0 85.76 0 43.52 0 0 Z " fill="#EFEEEE" transform="translate(0,0)"/>
<path d="M0 0 C0.93221878 -0.05296738 1.86443756 -0.10593475 2.8249054 -0.1605072 C37.14566269 -1.67464514 37.14566269 -1.67464514 49.15625 8.70703125 C61.2156376 21.11636151 59.12570221 40.47319458 58.94543839 56.60578918 C58.87635458 61.28023406 58.716169 65.94658333 58.5078125 70.6171875 C58.43358818 72.44271904 58.43358818 72.44271904 58.35786438 74.30513 C58.28827011 75.43557236 58.21867584 76.56601471 58.14697266 77.73071289 C58.06076157 79.21336388 58.06076157 79.21336388 57.97280884 80.72596741 C57.18583009 84.14264176 55.72712717 85.92454183 53.34375 88.45703125 C50.69786519 89.77997365 48.66719469 89.61337921 45.70410156 89.64990234 C44.52237366 89.66596527 43.34064575 89.6820282 42.12310791 89.69857788 C36.71129828 89.74295926 31.29963477 89.78453985 25.88769531 89.80712891 C23.03189967 89.820454 20.17682102 89.84827807 17.32128906 89.88916016 C13.20886197 89.94803453 9.09720167 89.96579871 4.984375 89.98046875 C3.0715976 90.01447281 3.0715976 90.01447281 1.12017822 90.04916382 C-8.75603543 90.02559628 -8.75603543 90.02559628 -12.44628906 87.04931641 C-15.88970074 83.01019298 -15.80001161 80.8238121 -15.86499023 75.5480957 C-15.87477402 74.83728348 -15.8845578 74.12647125 -15.89463806 73.39411926 C-15.92460727 71.03620273 -15.94598494 68.67834315 -15.96484375 66.3203125 C-15.97141558 65.51447409 -15.9779874 64.70863567 -15.98475838 63.87837791 C-16.01736332 59.6104241 -16.04180784 55.34249532 -16.0612793 51.07446289 C-16.07907265 47.54642239 -16.11385794 44.01918418 -16.16381836 40.49145508 C-16.22411182 36.22911248 -16.25476776 31.96751215 -16.26445198 27.70476341 C-16.27299489 26.0832576 -16.29178459 24.46177099 -16.3211956 22.84050941 C-16.56579592 8.58607901 -16.56579592 8.58607901 -13.22094727 3.99804688 C-9.3215193 0.51766106 -5.05433798 0.19489498 0 0 Z " fill="#EEEDED" transform="translate(42.65625,18.54296875)"/>
<path d="M0 0 C0.93221878 -0.05296738 1.86443756 -0.10593475 2.8249054 -0.1605072 C37.14566269 -1.67464514 37.14566269 -1.67464514 49.15625 8.70703125 C61.2156376 21.11636151 59.12570221 40.47319458 58.94543839 56.60578918 C58.87635458 61.28023406 58.716169 65.94658333 58.5078125 70.6171875 C58.43358818 72.44271904 58.43358818 72.44271904 58.35786438 74.30513 C58.28827011 75.43557236 58.21867584 76.56601471 58.14697266 77.73071289 C58.06076157 79.21336388 58.06076157 79.21336388 57.97280884 80.72596741 C57.18583009 84.14264176 55.72712717 85.92454183 53.34375 88.45703125 C50.69786519 89.77997365 48.66719469 89.61337921 45.70410156 89.64990234 C44.52237366 89.66596527 43.34064575 89.6820282 42.12310791 89.69857788 C36.71129828 89.74295926 31.29963477 89.78453985 25.88769531 89.80712891 C23.03189967 89.820454 20.17682102 89.84827807 17.32128906 89.88916016 C13.20886197 89.94803453 9.09720167 89.96579871 4.984375 89.98046875 C3.0715976 90.01447281 3.0715976 90.01447281 1.12017822 90.04916382 C-8.75603543 90.02559628 -8.75603543 90.02559628 -12.44628906 87.04931641 C-15.88970074 83.01019298 -15.80001161 80.8238121 -15.86499023 75.5480957 C-15.87477402 74.83728348 -15.8845578 74.12647125 -15.89463806 73.39411926 C-15.92460727 71.03620273 -15.94598494 68.67834315 -15.96484375 66.3203125 C-15.97141558 65.51447409 -15.9779874 64.70863567 -15.98475838 63.87837791 C-16.01736332 59.6104241 -16.04180784 55.34249532 -16.0612793 51.07446289 C-16.07907265 47.54642239 -16.11385794 44.01918418 -16.16381836 40.49145508 C-16.22411182 36.22911248 -16.25476776 31.96751215 -16.26445198 27.70476341 C-16.27299489 26.0832576 -16.29178459 24.46177099 -16.3211956 22.84050941 C-16.56579592 8.58607901 -16.56579592 8.58607901 -13.22094727 3.99804688 C-9.3215193 0.51766106 -5.05433798 0.19489498 0 0 Z M-9.65625 8.45703125 C-10.11813905 11.58904051 -10.11813905 11.58904051 -10.04443359 15.33764648 C-10.04969055 16.04513031 -10.05494751 16.75261414 -10.06036377 17.48153687 C-10.07359621 19.82645577 -10.0648138 22.17069887 -10.0546875 24.515625 C-10.05670754 26.14225902 -10.05961839 27.76889216 -10.06338501 29.39552307 C-10.06781293 32.80779629 -10.06136329 36.21983418 -10.04736328 39.63208008 C-10.0302845 44.00831338 -10.04010104 48.38399423 -10.05808067 52.76020718 C-10.06891759 56.12051053 -10.0654724 59.48068278 -10.0576973 62.84099007 C-10.05569432 64.45455045 -10.05815799 66.0681227 -10.06513596 67.68166924 C-10.07274763 69.93710755 -10.06115072 72.19164996 -10.04443359 74.44702148 C-10.04204681 75.7311644 -10.03966003 77.01530731 -10.03720093 78.33836365 C-9.88636634 81.38415853 -9.88636634 81.38415853 -8.47158813 83.37089539 C-5.96698217 84.86942743 -4.13653354 84.83811177 -1.22265625 84.84521484 C0.44422241 84.85939957 0.44422241 84.85939957 2.14477539 84.87387085 C3.34481201 84.86779816 4.54484863 84.86172546 5.78125 84.85546875 C7.01286865 84.85833893 8.2444873 84.86120911 9.51342773 84.86416626 C12.78722957 84.86673283 16.06060537 84.85464735 19.33435059 84.83789062 C21.34185385 84.83203678 23.34896369 84.8378692 25.35644531 84.84814453 C29.20656695 84.86664105 33.05610434 84.86444117 36.90625 84.85546875 C38.10628662 84.86154144 39.30632324 84.86761414 40.54272461 84.87387085 C41.65397705 84.86441437 42.76522949 84.85495789 43.91015625 84.84521484 C44.88927979 84.84282806 45.86840332 84.84044128 46.87719727 84.83798218 C49.35317685 84.62922407 49.35317685 84.62922407 51.1620636 83.26960754 C52.78803117 80.77555305 52.70470188 79.0356878 52.68432617 76.06762695 C52.68409958 74.96671219 52.68387299 73.86579742 52.68363953 72.73152161 C52.66815567 71.5439476 52.65267181 70.3563736 52.63671875 69.1328125 C52.63247391 67.91627487 52.62822906 66.69973724 52.62385559 65.44633484 C52.60703851 61.55384354 52.56937959 57.66186654 52.53125 53.76953125 C52.51620713 51.13347101 52.50251804 48.49740267 52.49023438 45.86132812 C52.45712499 39.39305315 52.40689505 32.92507894 52.34375 26.45703125 C51.15136719 26.39644531 49.95898438 26.33585937 48.73046875 26.2734375 C47.16405075 26.18901976 45.59764512 26.10437238 44.03125 26.01953125 C42.85272461 25.96055664 42.85272461 25.96055664 41.65039062 25.90039062 C40.89306641 25.85849609 40.13574219 25.81660156 39.35546875 25.7734375 C38.65897217 25.73677979 37.96247559 25.70012207 37.24487305 25.66235352 C35.34375 25.45703125 35.34375 25.45703125 32.34375 24.45703125 C30.91832799 20.94042125 31.02400824 16.95244413 30.78125 13.20703125 C30.69746094 11.94375 30.61367187 10.68046875 30.52734375 9.37890625 C30.46675781 8.4146875 30.40617187 7.45046875 30.34375 6.45703125 C25.12932724 6.40761265 19.91504066 6.37130294 14.70043945 6.34716797 C12.92632676 6.33710714 11.15223065 6.32345703 9.37817383 6.30615234 C6.82889716 6.28190747 4.27983963 6.27054907 1.73046875 6.26171875 C0.93662277 6.25139618 0.14277679 6.24107361 -0.67512512 6.23043823 C-4.53848043 6.22965015 -6.36464446 6.26262756 -9.65625 8.45703125 Z " fill="#08243F" transform="translate(42.65625,18.54296875)"/>
<path d="M0 0 C1.32 0 2.64 0 4 0 C3.51424682 8.18714904 1.11634767 15.34594185 -1.5625 23.0625 C-1.98724609 24.30966797 -2.41199219 25.55683594 -2.84960938 26.84179688 C-3.89157064 29.8974361 -4.94186513 32.94993183 -6 36 C-7.32 36 -8.64 36 -10 36 C-10.1979157 30.96134615 -9.6355454 27.01003256 -8.06640625 22.2265625 C-7.66486328 20.99035156 -7.26332031 19.75414062 -6.84960938 18.48046875 C-6.53286255 17.53179932 -6.53286255 17.53179932 -6.2097168 16.56396484 C-5.55827997 14.61235741 -4.92150253 12.65642554 -4.28710938 10.69921875 C-1.15864071 1.15864071 -1.15864071 1.15864071 0 0 Z " fill="#0E2742" transform="translate(67,49)"/>
<path d="M0 0 C4.54359502 0.48508132 6.65945738 2.06608567 9.875 5.25 C10.67679688 6.01828125 11.47859375 6.7865625 12.3046875 7.578125 C14 10 14 10 14.0234375 12.4921875 C12.74806197 15.61734434 11.12277533 17.47865405 8.75 19.875 C7.98171875 20.67679688 7.2134375 21.47859375 6.421875 22.3046875 C4 24 4 24 1.203125 23.7578125 C0.47609375 23.50773437 -0.2509375 23.25765625 -1 23 C-0.42424336 19.64749299 0.59306263 18.06181371 3.0625 15.75 C3.61035156 15.22921875 4.15820312 14.7084375 4.72265625 14.171875 C5.35494141 13.59179688 5.35494141 13.59179688 6 13 C4.80995883 10.07898986 3.67807805 8.70053772 1.3125 6.5 C0.549375 5.675 -0.21375 4.85 -1 4 C-0.8125 1.6875 -0.8125 1.6875 0 0 Z " fill="#132C46" transform="translate(75,55)"/>
<path d="M0 0 C-0.31767632 5.40049736 -3.19996327 7.52337065 -7 11 C-5.34908222 15.29238623 -2.26245434 17.8793915 1 21 C0.67 21.99 0.34 22.98 0 24 C-4.92784505 23.582687 -6.9777145 21.45014073 -10.3125 17.9375 C-11.19550781 17.01839844 -12.07851563 16.09929687 -12.98828125 15.15234375 C-13.65214844 14.44207031 -14.31601562 13.73179688 -15 13 C-13.47246728 9.4193319 -11.34422227 7.01439208 -8.625 4.25 C-7.85414062 3.45078125 -7.08328125 2.6515625 -6.2890625 1.828125 C-4 0 -4 0 0 0 Z " fill="#05203C" transform="translate(54,55)"/>
<path d="M0 0 C3.79235994 1.48985569 5.80565887 3.58658047 8 7 C7.75 9.3125 7.75 9.3125 7 11 C6.34 11 5.68 11 5 11 C4.67 11.99 4.34 12.98 4 14 C3 11 3 11 3.9375 8.8125 C4.288125 8.214375 4.63875 7.61625 5 7 C4.175 6.21625 3.35 5.4325 2.5 4.625 C0 2 0 2 0 0 Z " fill="#0B243E" transform="translate(76,59)"/>
<path d="M0 0 C0.33 0.99 0.66 1.98 1 3 C0.195625 3.556875 -0.60875 4.11375 -1.4375 4.6875 C-4.24228216 7.21864487 -4.69381595 8.32579134 -5 12 C-5.99 11.34 -6.98 10.68 -8 10 C-6.34908222 5.70761377 -3.26245434 3.1206085 0 0 Z " fill="#0F2842" transform="translate(47,58)"/>
</svg>
